<?xml version="1.0" encoding="UTF-8"?>
<!-- Created with Inkscape (http://www.inkscape.org/) -->
<svg width="210mm" height="297mm" version="1.1" viewBox="0 0 793.7 1122.5" xml:space="preserve" xmlns="http://www.w3.org/2000/svg"><path d="m272.66 1071.6-7.2861-0.7919-9.1972-2.3397-9.055-4.2676-7.2282-5.4772-3.8341-5.3367-1.5765-0.605-3.8675 0.621-3.8675 0.6209-27.731-0.024-19.242-1.8762-7.9231-1.8135-6.715-3.3471-4.7584-3.2739-3.278-2.9881-3.278-2.9882-6.7609-9.055-3.0391-6.7912-2.688-11.885 0.0416-6.7913 0.0416-6.7912 0.97673-4.2445 0.97674-4.2445 0.49348-2.3737 0.49347-2.3737 4.1611-8.2691 4.5408-6.7912 14.493-14.165-2.3976-3.9532-2.3976-3.9532-1.82-2.8297-1.82-2.8297-6.1252-11.885-3.6131-9.055-4.27-13.017-0.63504-3.1126-0.63504-3.1127-1.1104-7.0742-1.1104-7.0742-0.66391-5.0934-0.6639-5.0934 0.0234-12.451 0.0234-12.451 0.62009-5.0934 0.6201-5.0934 1.1738-7.3572 1.1738-7.3572 2.2488-10.431 4.5883-13.868 8.7922-18.329 9.3892-15.663 6.1984-8.4891 5.7274-6.7912 15.393-15.846 0.68939-11.602 0.6894-11.602 0.53557-4.5275 0.53556-4.5275 1.7988-14.648 2.1213-11.385 2.311-11.086 1.6359-6.3415 1.6359-6.3415 3.2382-10.47 3.2382-10.47 2.008-5.3764 2.008-5.3764 2.4108-5.6594 2.4108-5.6594 7.3717-15.47-1.8899-1.601-6.2253-2.6017-15.846-7.6906-13.212-7.9498-20.744-15.229-12.084-10.846-10.458-11.618-6.3201-8.6136-6.2253-9.697-2.6516-1.4617-18.288 6.1213-14.714 5.8165-23.769 11.143-14.833 8.9448-4.4092 0.55096-5.0844-2.6174-2.1418-5.2377 0.78828-4.2019 4.4711-4.8506 7.6262-5.069 16.02-8.7278 14.541-6.6214 6.2253-2.2615 23.769-8.6537 1.4666-1.4413-4.0882-11.227-1.1642-3.6786-1.1642-3.6786-0.76567-0.8153-0.76567-0.81531-16.722 1.3396-15.28 2.263-9.055 1.7502-15.28 3.4064-14.714 3.7261-13.8 3.212-4.7597-2.1463-2.0926-3.4314v-2.5467-2.5467l2.2221-3.6444 4.6602-3.3758 8.6768-2.7935 17.621-4.5602 14.071-2.9422 14.414-2.7429 14.449-1.176 9.6209-0.7038 1.9541-1.6988-0.53436-0.86461-2.7639-13.981-0.89929-6.1163-0.89928-6.1162-1.2431-15.498 0.33441-12.451 0.33441-12.451 0.8837-7.6402 0.8837-7.6402 0.56582-3.5661 0.56583-3.5661 3.2641-14.476 4.7218-16.309 1.6306-6.0997 3.4815-7.4828 4.9362-10.943 0.35142-1.4002 0.35143-1.4002-0.84333-1.6308-0.84332-1.6308-7.4746-18.487-0.60796-2.6277-0.60795-2.6277-0.47396-1.4148-0.47395-1.4148-1.6935-5.6594-1.6935-5.6594-0.87926-3.1127-0.87925-3.1127-2.3533-7.9231-3.4202-15.28-2.6918-13.582-1.7024-12.451-0.98999-9.338-0.98998-9.338-0.0152-23.203-0.0152-23.203 1.43-12.451 1.1469-8.4891 1.1469-8.4891 1.3737-7.0742 1.3737-7.0742 2.0021-7.0216 2.0022-7.0216 4.2941-9.1602 6.4244-6.9367 8.2115-4.0012 10.144-1.3039 8.5321 0.73637 14.148 2.1426 13.017 3.3216 9.055 2.7859 5.0934 1.7702 12.451 4.6575 5.6594 2.3429 18.11 9.6398 20.741 12.576 19.44 14.516 1.4148 1.5205 1.4148 1.5205 11.066 8.8775 26.462 26.703 18.5-3.5988 14.148-2.1699 11.319-1.5279 49.802 0.0284 18.11 2.4845 13.017 2.7563 8.6618 1.9554 2.7078-0.67962 10.362-11.638 15.054-15.336 13.582-11.332 10.753-8.4727 9.6209-6.8383 21.197-13.255 19.55-9.4649 11.885-4.1593 14.148-4.9332 14.148-3.38 12.451-2.2768 13.582-1.1938 6.7912 1.0388 5.0451 1.82 5.1418 3.3078 5.3194 5.4316 4.6635 8.4891 2.8674 9.6209 1.0856 4.5275 1.0856 4.5275 0.53109 3.1126 0.53109 3.1127 1.1214 8.2061 1.1214 8.2061 0.32237 2.5467 0.32236 2.5467 0.84275 10.457 0.84276 10.457-6e-3 33.416-1.6509 18.676-1.1701 7.9231-1.1701 7.9231-0.52956 5.1899-0.52956 5.1899-1.7673 8.1096-1.7673 8.1096-3.3697 13.017-2.3107 7.9231-7.1149 20.94-3.5484 9.6209-3.3629 7.2013v2.1818l2.404 4.7123 5.3921 13.636 2.8532 8.4891 2.8532 8.4891 2.3004 8.4891 2.315 10.494 1.1343 7.6163 1.922 13.582 0.0105 19.242 0.0105 19.242-1.566 10.089-1.566 10.089-1.2994 6.1602-1.2994 6.1602 1.1742 1.1742 5.15-0.012 14.148 1.1886 12.451 1.7561 13.017 2.2007 11.885 2.8464 20.374 5.7247 6.6447 3.505 1.4253 2.1537 1.4253 2.1537-0.65048 6.3026-0.91148 1.3911-0.91149 1.3911-4.8204 2.342-6.7289-1.8774-9.6209-2.6591-13.017-3.4105-13.017-2.8516-17.544-2.9032-20.374-2.1152-4.2049 0.53755-0.57897 0.69762-0.57897 0.69761-3.3465 10.872-2.8924 6.3235v1.0722l2.5467 1.6414 14.148 4.7452 13.017 5.0107 10.753 4.6793 12.451 6.1661 14.117 7.9862 4.9377 4.5514 1.0842 2.1252 1.0842 2.1252-9e-3 1.5789-9e-3 1.5789-2.5281 4.4426-5.0934 2.713-1.8571-0.29097-1.8571-0.29098-7.0387-4.6458-23.769-11.687-5.0934-2.2957-11.319-4.7879-0.56594-0.4412-0.56593-0.44121-12.451-4.5191-11.072-3.6493-1.114 1.0082-1.114 1.0082v0.96679l-6.0307 9.3276-9.4335 11.822-12.55 12.523-11.885 9.6629-9.6209 6.774-8.4891 5.6244-12.451 7.6792-15.28 7.4224-7.1708 2.8856-0.29928 0.77991-0.29928 0.7799 4.0005 7.6192 11.944 29.1 3.9112 11.647 4.7215 16.412 0.80422 3.6786 0.80423 3.6786 3.4478 16.412 0.81625 7.6402 0.81624 7.6402 0.80648 7.6402 0.80647 7.6402 0.67862 14.148 0.30478 3.4986 0.30477 3.4986 18.94 19.036 10.124 13.644 3.9446 5.5977 1.8992 3.0849 1.8992 3.0849 2.5142 5.006 2.5142 5.006 1.421 3.7938 1.421 3.7938 4.5076 12.451 2.3157 8.4891 2.1807 10.035 1.6379 11.471 1.1928 13.777v14.072l-0.57571 7.2979-0.5757 7.2979-1.154 7.0742-1.154 7.0742-0.58028 1.9864 0.8593 0.32974 0.8593 0.32975 10.527-4.9995 11.395-8.6003 9.8399-10.34 8.9063-13.461 5.2191-12.441 1.6747-5.8308 1.6747-5.8308 0.84872-5.3764 0.84871-5.3764 0.76764-14.148-0.67387-7.0742-0.67386-7.0742-1.7035-8.4891-1.9487-5.867-1.9487-5.867-2.6522-4.8858-2.6522-4.8858-7.5157-11.885-4.8624-10.619-2.1988-8.0569-0.59784-14.714 3.0357-10.753 2.3238-4.2445 2.3239-4.2445 7.4322-7.4428 8.1719-4.8336 10.504-3.5177 19.242-4e-3 7.3572 1.9892 9.055 2.8064 14.714 7.3494 10.753 7.6149 14.789 14.714 7.3353 9.8796 5.2158 8.7963 6.1485 12.451 1.183 3.3956 2.0688 6.7912 0.7685 1.1319 3.4673 14.148 2.394 15.846 0.32225 11.62 0.32224 11.62-1.3848 13.546-1.3717 7.4588-1.3717 7.4588-1.1286 3.86-1.1286 3.86-1.4877 5.0934-1.4877 5.0934-3.9783 10.677-6.9222 13.658-8.7972 13.017-6.3401 9.055-7.9443 9.6209-17.172 16.978-13.931 10.187-8.6183 6.3764-14.714 8.2407-5.6594 2.4963-10.852 4.6598-14.615 5.1372-13.017 3.2929-14.714 2.272-7.6973 0.77004-1.5613 1.5613 0.59738 1.8386 0.59737 1.8386 1.0512 4.8105 1.0512 4.8105 0.01 6.6127 0.01 6.6128-0.8207 3.8571-0.82071 3.8571-1.0853 3.1253-1.0853 3.1254-1.5658 3.0999-1.5658 3.1-3.4725 5.0934-2.8566 3.0396-2.8566 3.0395-6.9044 4.9349-8.0407 3.4216-7.6924 1.7914-14.714 1.6417-25.467 0.6814-5.8551-0.683-5.8551-0.6831-0.80017-0.3071-0.80016-0.307-7.6292 7.8696-5.0934 3.4222-5.9184 2.9888-5.9663 2.1594-7.3572 1.7413-12.03 1.7518h-21.998l-12.421-1.6382-8.9415-1.847-7.402-2.9632-4.5539-2.5524-6.7528-5.4491-5.9443-7.3387-6.0587-13.535-46.147-0.048-0.79746 1.9084-0.79747 1.9084v1.8003l-4.7719 9.6632-9.6595 9.735-7.7158 4.2702-7.676 2.6695-8.3776 1.7943-7.0742 0.8053-7.0742 0.8052-18.11-0.114zm27.185-17.802 2.4292-1.176 3.0368-3.5904 3.278-6.981 0.58458-5.5645 0.58457-5.5645-1.4302-15.57 0.52345-2.0999 0.52344-2.0999 1.923-1.2924 1.923-1.2923h2.4949l3.846 2.588 1.5483 4.4862 0.7623 3.3956 0.76231 3.3956 0.0139 7.0742 0.0139 7.0743-3.1462 12.745 0.50338 0.5034 0.50338 0.5033 4.7645-3.2155 2.5584-2.7352 2.5584-2.7351 0.92788-1.4162 0.92787-1.4161 2.8747-8.8062 1.1829-5.2786 1.637-12.412-1.2e-4 -6.8272-1.1e-4 -6.8273-0.84785-10.841-0.84785-10.841-2.2892-20.764-0.60377-6.5083-0.60378-6.5083-1.3578-9.9039-1.3578-9.9039-2.568-16.412-2.568-16.412-1.4096-9.338-1.4096-9.338-0.54547-3.1126-0.54546-3.1127-3.996-27.165-1.4351-10.47-1.4351-10.47-1.1109-9.055-0.82213-9.338-0.82214-9.338 8.2e-4 -3.9616 8.3e-4 -3.9616 2.0896-4.5275 1.3557-1.2464 1.3557-1.2463 4.2705-1.7843 4.4035 1.1857 1.4413 1.7129 1.4413 1.7129 0.55525 2.0965 0.55524 2.0965 1.7939 17.544 2.3082 18.11 3.211 20.94 1.1779 10.187 1.2177 9.338 1.2177 9.338 0.95974 6.7912 0.54461 3.3956 0.54462 3.3956 3.47 23.769 0.57697 3.3956 0.57698 3.3956 0.83172 5.6594 0.83172 5.6594 4.5532 36.786 1.0691 7.9231 0.31302 2.5467 0.31303 2.5467 1.7638 19.242-0.13986 13.55-0.13987 13.55 3.3336 0.9308 18.676 1.2078 15.556-1.0802 0.83067-0.6894 0.83068-0.6894-0.34458-11.975-0.34457-11.975 1.3013-15.28 0.62893-6.2253 0.62894-6.2253 3.8687-31.127 1.3576-9.9039 1.3577-9.9039 0.6195-5.6594 0.61951-5.6594 1.1074-6.7912 1.1074-6.7912 2.2249-14.714 2.3364-14.714 0.58848-4.2445 0.58847-4.2445 1.3591-8.4891 1.3591-8.4891 3.9523-27.731 1.8589-16.412 0.73621-5.766 0.73621-5.766 1.0537-2.1497 1.0537-2.1497 3.9616-2.6522 4.5275 0.68793 2.8297 2.0557 1.264 2.2105 1.264 2.2106-4e-3 13.017-0.80067 7.3572-0.80067 7.3572-0.62016 5.0934-0.62017 5.0934-0.45842 3.3956-0.45843 3.3956-2.9687 20.374-4.0488 30.561-2.2978 15.28-4.4029 26.033-2.9194 22.638-1.1381 7.2582-1.0356 8.0222-1.1612 8.8678-1.1612 8.8678-1.6843 20.722v14.261l0.5969 6.1821 0.59691 6.1821 0.78256 4.262 0.78256 4.2621 0.94163 2.8122 0.94163 2.8121 1.7713 3.3517 1.7713 3.3518 2.7742 3.0353 2.7742 3.0354 2.4784 1.4524 2.4784 1.4525 1.5824-0.6072-1.4207-3.5173-1.4207-3.5173-0.79017-4.8675-0.79016-4.8676-2e-3 -5.5476-2e-3 -5.5477 0.92282-4.0733 0.92282-4.0732 2.3983-2.4053 2.3983-2.4052h4.0236l1.7305 1.4561 1.7306 1.4562 0.61675 2.2905 0.61676 2.2904-0.72003 2.9032-0.72002 2.9031 0.0408 13.017 1.2256 4.6224 1.2256 4.6225 1.1072 2.5831 1.1072 2.583 1.2978 1.7632 1.2978 1.7631 1.5282 0.7938 1.5282 0.7937h7.2438 7.2438l3.4814-2.123 1.536-3.2441 1.536-3.2441 0.33852-4.3898 0.33852-4.3899-0.7258-3.8945-0.7258-3.8946-1.3331-4.4857-1.3331-4.4858v-6.139l1.9926-1.9926 1.9926-1.9926 3.655 0.7158 1.4148 1.0407 1.4148 1.0406 4.1698 9.5074 2.4432 9.055 0.30245 5.4388 0.30245 5.4389-1.3374 7.6798 0.92683 0.9268 5.0773-1.7367 2.5924-1.6557 2.5924-1.6556 2.0384-2.9737 2.0385-2.9736 2.9044-5.6594 0.63391-3.3956 0.63392-3.3956-0.33298-6.7913-0.33298-6.7912-1.0615-3.3956-1.0615-3.3957-3.4499-6.7912-4.9349-6.3462-1.6961-1.3787-1.6961-1.3787-1.4965-0.93994-1.4964-0.93995-6.628-2.2232-9.055-1.219-7.7987-0.67876-1.3356-1.3356-1.3356-1.3356v-2.3714l0.83518-1.6151 0.83519-1.6151 4.0175-2.4829 6.4798-0.57645 10.34 1.7958 9.2871 2.9338 0.72583-0.27853 0.72582-0.27852 1.3345-9.4286 1.0884-6.2253 3.2602-16.412 4.1268-18.676 3.9416-17.261 2.3485-11.036 2.0496-9.6209 6.2743-30.561 1.7288-9.055 4.6655-26.033 2.1916-12.31 1.1403-7.4272 1.1403-7.4272 1.9416-14.997 1.9416-14.997 0.65082-10.47 0.65082-10.47-0.69062-31.692-1.7017-15.28-1.1602-7.0437-1.1602-7.0437-2.3668-10.248-3.7536-14.714-2.2291-7.3572-0.9201-3.79-0.92009-3.79-1.0503-2.7182-1.0503-2.7182-3.8828-9.8643-3.8828-9.8643-8.4891-17.057-3.3956 0.167-11.319 3.6477-20.94 5.4014-16.978 3.518-20.94 3.3263-9.6209 1.1776-12.451 1.1495-18.091 1.1372h-14.497-14.497l-24.224-1.7341-17.544-2.2439-13.582-2.2078-16.978-3.4838-5.6594-0.98225-9.4647-2.4212-4.6837-1.5208-10.187-3.0254-8.3264-2.7925-2.2551 0.71575-1.262 2.9153-1.2621 2.9153-0.96708 3.3956-0.96709 3.3956-1.7914 3.3956-1.6445 3.2116-1.6445 3.2116-2.9521 7.7252-5.2774 15.28-1.9905 6.7912-2.2208 7.9231-3.7901 15.28-0.6145 3.1127-0.6145 3.1126-1.2147 9.055-0.52699 3.0294-0.527 3.0294-0.99336 8.0064-0.99336 8.0064-0.0438 46.407 0.72461 6.7912 0.72462 6.7912 2.8142 19.808 0.58951 4.2445 0.58952 4.2445 1.1066 6.2253 1.1066 6.2253 1.7442 9.6209 7.2783 37.352 4.1057 20.374 2.4533 11.319 2.4533 11.319 1.8598 10.187 2.2904 11.885 2.1145 8.4891 6.2134 29.995 0.9054 5.367 0.9054 5.367 0.55715 0.67132 0.55715 0.67133 7.5771-2.6226 6.7912-1.4512 11.885-0.0798 3.9616 2.3135 2.2 4.059-0.96637 1.4749-0.96637 1.4749-2.78 1.8216-13.333 0.9193-8.0646 2.8187-2.6882 1.4381-6.6424 6.3176-3.7692 5.8733-1.1424 2.2392-1.1424 2.2393-2.3157 8.6414-0.69148 9.8696 1.2873 8.489 3.9789 8.1468 5.9098 5.202 3.3956 1.6424 3.3956 1.6425 0.4793-0.4768 0.47931-0.4769 0.15351-8.9719 0.15352-8.9718 2.3451-8.6876 1.8336-4.4283 1.8336-4.4282 3.6448-3.6786h4.5776l2.9521 2.5468 0.50733 2.258 0.50732 2.258-2.774 9.6422-0.84777 4.4309-0.84778 4.4309 0.014 6.9746 1.5081 5.6594 0.93383 1.805 0.93383 1.8049 1.261 0.8833 1.261 0.8832h14.105zm-71.763-17.686 0.62367-0.7514-0.55437-1.933-0.55438-1.933v-16.013l2.8357-10.914 1.3958-3.435 1.3958-3.4349 2.5628-4.4432 2.5628-4.4431v-8.5892l-2.9583-14.384-1.657-4.1568-4.1649-1.6665-9.0375-1.3699-14.724 0.012-7.9231 1.2813-7.3572 1.7893-11.034 5.4574-3.255 2.5078-3.255 2.5078-5.1404 5.5218-3.4961 5.1004-1.6868 3.1178-1.6868 3.1178-2.0273 6.774-0.029 6.7912-0.029 6.7913 1.5041 4.1282 1.5041 4.1283 4.2326 7.0238 3.1805 3.137 3.1805 3.1371 5.3727 2.0518 0.23516-0.2351 0.23515-0.2352-1.1353-2.9879-1.1353-2.988-1.0724-4.6185-1.0724-4.6184-0.6073-5.4848-0.60731-5.4849 0.51813-5.008 0.51812-5.008 1.1564-3.2903 1.1565-3.2903 1.4661-1.9222 1.4661-1.9222 3.2809-1.6966h4.7169l4.3943 4.3943v2.7955l-2.8207 3.846-1.8437 3.9616 0.29273 7.0742 0.29274 7.0742 1.4123 5.405 1.4123 5.4051 3.5875 8.4318 2.2666 2.4136 2.3691 0.4236 2.3691 0.4237 9.338 0.3964 9.338 0.3965 8.0675 0.19zm321.33-0.1525 2.9086-0.2937 4.7574-3.0468 1.581-3.1127 1.581-3.1126 3.1533-12.451 0.0441-7.3572 0.0441-7.3572-1.4424-4.0619-2.8022-3.7981v-3.589l1.1407-1.4502 1.1407-1.4502 3.8734-1.2783 4.113 0.77159 3.3704 2.836 2.6134 5.229 0.91125 3.9616 0.91126 3.9616 0.34831 3.6786 0.34832 3.6785-0.64628 5.8424-0.64628 5.8423-3.3057 11.486 1.128 1.128 2.0022-1.0783 2.0022-1.0782 7.0111-7.4462 3.5833-6.773 1.9443-7.3572-0.0232-5.0935-0.0232-5.0934-1.216-4.7462-1.216-4.7462-3.8104-7.4858-7.3158-9.055-6.0713-4.9742-9.0612-4.2885-9.7219-2.8173-9.4104-1.376-17.081 0.67414-5.0934 1.2072-3.142 1.2543-1.1754 1.6507-1.1754 1.6507-2.6915 13.244-0.36997 4.8848-0.36997 4.8848 7.9972 16.264 2.3135 7.6672 0.61936 4.9384 0.61936 4.9385-0.46198 5.9423-0.46199 5.9424-2e-3 1.1318-2e-3 1.1319 10.753 0.5785 13.017-0.34zm58.583-71.819 7.5526-0.84894 5.6594-0.98452 7.9231-1.3749 6.2253-1.6884 9.055-2.7858 13.329-5.1576 14.371-7.3987 11.546-7.1371 8.8586-6.5173 10.753-9.2386 11.971-12.414 8.5328-10.669 7.3914-10.753 4.5085-8.4891 4.7843-9.055 2.5177-6.1246 2.5178-6.1246 4.9135-17.18 0.94154-5.3764 0.94155-5.3764 1.0163-22.072-0.61046-10.187-1.665-11.885-1.1306-5.0934-1.4286-4.8105-1.4286-4.8105-4.992-13.017-6.9126-12.451-2.3003-3.3956-2.3003-3.3956-5.9979-6.8623-10.987-9.5499-3.4927-3.1762-6.4323-3.9339-10.546-4.9543-5.6594-1.923-7.3568-1.5759-10.753 0.012-5.2604 1.5965-1.8808 0.97263-1.8808 0.97262-6.3839 6.0892-3.8358 8.1838-0.19284 5.7939-0.19283 5.7939 2.4478 7.654 3.4725 6.2057 3.0583 3.9812 6.4043 8.6876v2.0974l5.2251 11.852 2.7093 8.4891 2.7539 13.017 0.67796 6.4795 0.67797 6.4795-0.33207 12.196-0.33206 12.196-2.8791 13.765-2.932 8.3066-4.5422 11.885-4.0314 7.3572-6.557 9.6209-9.7093 11.005-8.177 6.9173-11.782 7.9078-11.421 5.7512-6.2253 2.0346-5.945 2.1478-2.3642 2.1396-8.861 18.124-8.0373 12.38 0.19646 0.60102 0.19647 0.60101 8.9684 7.7081 3.3956 1.5856 4.7025 0.0444zm-40.928-19.143 1.2359-1.3155 4.1263-6.7069 4.6477-8.4891 1.6521-3.6786 1.6521-3.6786 3.819-9.055 2.6566-7.9231 2.3129-9.6209 2.5753-14.148-0.0112-17.261-0.0112-17.261-2.5335-16.249-3.8323-14.878-2.0705-5.3345-2.0705-5.3345-2.5697-5.1773-5.3864-10.187-5.1804-8.4891-6.1815-8.4891-7.774-9.2947-1.6776 0.64373-0.01 4.1234-0.80068 6.2253-0.80067 6.2253-0.65565 5.6594-0.65565 5.6594-1.4573 10.187-1.4573 10.187-0.39901 2.8297-0.39902 2.8297-1.2301 7.5917-1.23 7.5917-3.9547 21.037-4.03 19.808-4.9099 23.769-2.2436 10.187-2.2436 10.187-1.9935 10.743-1.8452 7.3619-1.8452 7.3619 0.75181 0.74176 7.3572-1.6176 15.28-0.0754 10.753 1.8819 10.187 2.6941 1.2176 0.0538zm-375.54-0.60493 5.7962-1.3545 8.4891-1.4446 16.978 0.02 6.7318 1.3072 0.40723-0.4259 0.40724-0.4259-5.57-24.335-1.4328-6.7912-1.4328-6.7912-7.1798-35.654-2.889-14.997-2.8889-14.997-1.4353-7.5007-1.4352-7.5007-4.5238-28.01-1.6864-12.734-1.6864-12.734-0.0107-3.1126-0.0107-3.1127-0.57433-0.8489-0.57433-0.84891-2.0293 2.2638-2.0293 2.2638-6.2611 7.9231-0.70682 0.58548-0.70682 0.58547-8.1096 12.412-5.5071 11.319-4.4413 10.753-4.5658 14.148-0.61213 2.5467-0.61214 2.5467-0.88725 4.5275-0.88726 4.5275-0.82435 7.3572-0.82434 7.3572-5e-3 9.3528-5e-3 9.3528 0.56021 4.7956 0.56022 4.7956 1.263 9.055 1.8864 7.6402 1.8864 7.6402 2.2132 6.7912 3.4202 8.4891 4.1307 9.055 2.5953 3.9616 5.3926 8.2845 2.7913 3.3172h1.0406zm207.84-340.19 13.582-0.83884 9.055-1.0954 8.4891-1.1158 5.0934-0.73686 15.346-2.7425 24.263-5.6545 29.435-9.6986 12.451-5.0892 19.242-9.9617 7.9231-4.7461 3.2893-1.8963 7.4635-4.9461 6.2253-4.6626 9.6209-7.8539 13.14-13.275 6.7591-8.3123 4.1533-6.2102v-1.7648l-15.563-2.5598-13.323-2.1879-4.4289-2.2594-0.8863-1.2654-0.8863-1.2654 4e-3 -4.5586 2.2055-3.6171 3.1281-2.0423 11.414 0.1798 14.658 1.8654 10.753 2.33 3.1288 0.56612 5.1506-11.167 1.4986-3.3956 0.7174-2.3869-0.89687-0.74433-0.89687-0.74434-27.378-0.45095-5.8444-1.6189-2.8318-3.3654-0.37515-1.708-0.37515-1.708 2.6352-4.7592 3.95-2.3014 36.797-1.2827 0.1456-0.1524 0.59789-1.5563 0.5979-1.5563 2.3266-10.753 0.85008-5.0934 0.85009-5.0934 0.85301-9.0044 0.853-9.0044-4e-3 -17.645-0.83398-9.055-0.83397-9.055-2.2666-13.017-3.5767-13.582-1.3944-6.3223-3.6923-10.656-1.6627-4.2445-1.6627-4.2445-11.067-22.072-3.4534-5.8018-3.6237-6.6488-10.595-15.846-7.1165-8.5607-3.9616-5.4226-6.9095-8.0882-12.831-12.451-10.254-10.022-10.187-7.6335-6.2234-5.3209-19.244-12.772-12.451-6.6321-21.506-10.675-13.582-5.3512-5.6594-1.8195-11.319-3.0507-8.4158-2.6706-0.99356 0.99356 1.1676 11.396 1.1676 11.396v16.292l-0.82814 7.8472-0.82813 7.8472-2.2966 11.874-4.4713 13.582-3.3006 7.9231-4.2751 8.4891-4.5814 6.7912-6.1007 7.6837-7.3564 6.0679-6.6564 3.5478-5.4291 1.716-13.582 0.65213-7.9231-1.243-8.2158-4.0597-8.2024-6.5181-6.3203-7.2807-4.4845-6.2253-1.6898-2.8297-1.6898-2.8297-6.6028-14.714-1.0492-3.2826-1.0492-3.2826-2.3394-9.847-1.1448-6.7912-1.1448-6.7912-0.32582-9.666-0.32583-9.666 0.69553-8.444 0.69552-8.444 0.74397-5.3764 0.74398-5.3764-0.9851-1.0375-6.5277 1.4608-11.903 3.8004-1.9584 0.0208-7.0966 2.8059-19.808 7.8274-10.059 4.7309-4.0892 2.559-13.582 7.099-14.971 9.9963-15.023 11.237-14.148 12.436-12.476 12.9-8.5354 10.187-3.6834 4.8566-3.6834 4.8566-14.171 21.413-3.2001 5.6594-1.3999 1.6978-6.0882 11.885-1.3289 3.1127-1.329 3.1126-2.712 6.2837-2.712 6.2837-2.5401 7.2988-2.5401 7.2988-1.4288 4.8105-1.4288 4.8105-1.4376 6.5216-1.4376 6.5216-2.2205 12.99-0.67469 8.772-0.67468 8.772 0.32935 13.865 0.32936 13.865 0.87618 5.9423 0.87619 5.9423 0.8849 4.5275 0.88491 4.5275 1.7699 5.6594 2.3193 2.5467 19.328 0.0556 15.28 0.93905 4.9241 1.4823 1.4572 2.3335 0.3323 1.9808 0.33229 1.9808-0.51224 2.2114-0.51225 2.2114-2.9314 2.9344-32.197 0.56593-1.7935 1.7947 5.7669 13.486 0.99499 1.3101 0.99499 1.3101 10.127-1.7223 20.902-2.3913 10.225-0.20436 3.7286 2.0357 2.2095 3.6236 2e-3 1.5745 2e-3 1.5745-1.6033 3.8372-3.083 2.0201-24.674 4.1742-6.6509 0.77192-1.6134 0.99716 2.1834 3.7265 4.8452 6.6867 12.046 13.326 8.08 7.1675 6.7912 5.7582 8.4891 6.065 18.11 11.086 12.272 6.2833 14.327 6.2535 8.4891 3.1026 5.6594 1.9566 13.017 4.3846 11.885 3.3851 14.148 3.4343 14.714 2.8541 10.753 1.6692 23.769 2.4107 15.28 0.88016 25.467 0.1562zm-31.658-42.502-3.3613-0.81297-7.4258-4.1486-6.0824-5.7328-2.087-3.1126-2.087-3.1127-1.543-3.3149-1.543-3.3149-0.77411-3.693-0.77411-3.693-1.3456-0.8316-6.4691-0.67616-8.3675-3.4052-6.0685-4.1795-4.3224-5.0568-4.6028-9.3286-0.87765-3.7844-0.87766-3.7844v-2.8045l1.1071-2.17 1.1071-2.17 3.5321-2.9721h5.5094l2.9329 2.5467 2.0598 8.4958 2.3323 4.5716 5.2736 4.861 5.9494 2.7237 5.2684 0.72212 5.3926-1.4627 5.5983-2.782 6.4354-6.1383 1.6956-3.2319 1.6956-3.2319 1.9114-5.895-0.1791-1.863-0.17911-1.863-10.195-5.0934-6.2781-4.6819-9.437-10.032-1.4692-3.1126-1.4692-3.1127-7e-3 -3.9616-7e-3 -3.9616 1.5163-2.5793 1.5164-2.5793 4.9382-4.5519 6.1775-2.9189 6.9782-2.3476 10.566-1.7136 12.086-4e-3 8.8072 1.225 9.1017 2.8696 6.2668 3.157 4.673 5.0696 1.7614 3.4062 0.53871 2.3976 0.53872 2.3976-1.1142 6.9185-2.0121 4.5343-7.2036 8.9436-6.4409 4.7415-6.6288 2.5403-5.3764 2.361v4.713l1.1899 3.6306 1.1899 3.6306 0.58172 1.1319 0.58171 1.1319 4.0969 5.4469 7.4073 5.0636 5.5062 1.6571h6.5689l6.264-2.3437 6.3008-5.7586 2.6437-5.217 0.84548-6.767 3.6832-3.6832h6.2991l3.9852 3.499 1.2385 4.5993-0.39169 3.4495-0.3917 3.4495-2.6777 8.4891-4.6077 7.0226-4.1896 3.272-5.1839 2.9997-6.3448 2.1829-8.8451 1.4185-1.9808 1.6727-5.8e-4 5.7669-1.1775 3.1127-1.1775 3.1126-3.526 6.1855-6.852 6.8356-8.0398 4.2143-7.2405 1.7067-9.055-0.0776zm15.201-18.609 2.2192-0.95362 4.9554-3.7837 2.2447-2.8536 2.8464-6.4362-0.33646-1.6085-6.7271-2.7283-6.1116-4.2092-5.724-6.581h-1.2924l-5.0461 5.1908-8.4891 7.1048-4.7061 2.3885-0.51188 1.4451 1.371 2.7393 1.371 2.7393 4.6694 5.0658 3.3358 2.3753 4.0916 1.5364 9.6209-0.47721zm0.22089-71.313 2.93-1.5947 7.3907-6.0962 3.3685-4.65v-2.974l-0.88831-1.2682-0.8883-1.2682-2.6488-1.334-2.6488-1.334-5.9981-1.2726-15.508 0.018-8.9255 2.2489-3.8224 2.3624-1.1176 2.0882v3.7043l7.0742 6.8945 7.1224 4.8308 3.6304 1.649 7.9992-0.40878zm-130.91 0.49832-1.6978-0.25394-10.753-1.6555-8.6811-3.2545-7.4331-4.1568-8.2211-6.544-6.0916-6.6801-5.6136-7.9515-3.729-7.3572-2.898-8.4891-1.7795-7.8005-0.94902-11.223 0.48881-5.4854 0.48882-5.4854 1.4234-5.6594 1.4234-5.6594 5.0557-10.544 7.0841-9.7503 8.2824-8.8043 7.2645-5.1838 9.6036-4.4784 9.3746-2.7119 8.8548-1.4239 13.217 0.70657 9.055 2.2136 10.669 4.0785 6.7155 4.0794 8.2982 6.5943 7.142 8.3957 2.3061 3.8869 2.3061 3.8869 2.0525 5.3764 2.0525 5.3764 1.1517 3.9616 1.1517 3.9616 0.56232 3.9616 0.56231 3.9616 0.0224 10.388-1.2087 8.6904-1.1009 4.3046-1.1009 4.3046-5.461 12.589-6.3899 8.6404-7.6591 7.3773-6.7912 5.1749-13.611 6.6436-10.159 1.8437-13.582 0.40949zm18.393-18.922 4.2445-1.1819 8.938-4.733 10.87-10.336 2.7779-4.6145 2.7779-4.6145 1.956-5.781 1.956-5.7809 6e-3 -15.28-0.62032-3.6786-0.62033-3.6786-0.97269-3.2646-0.97268-3.2646-1.1871 0.39569-2.9201 7.8312-2.3899 4.5275-6.2101 7.0443-1.841 6.5382-0.86663 2.2457-0.86664 2.2457-6.2812 9.657-8.0606 7.9236-8.1119 4.883-6.0365 2.3232-9.6209 0.57299-7.0568-1.8094-5.9597-2.9787-3.3956-2.5854-3.3956-2.5855-7.0355-7.8924-4.4502-8.6041-0.90692-3.5828-0.90692-3.5828v-2.7383h-1.6978v4.7382l1.7474 7.4295 1.2433 5.0934 5.0925 9.6209 2.2734 3.3956 8.0363 8.2992 4.5275 3.1504 6.3606 3.3839 8.9198 2.358 2.8297 0.56191 13.582-0.46969zm14.997-48.314 2.2638-0.94984 5.4571-5.8873 2.9786-5.6594 0.0216-9.055-1.5558-3.3561-1.5558-3.3561-1.9727-2.4074-1.9727-2.4074-2.9639-1.6871-2.9639-1.6871-6.5083-1.1896-6.5083 1.1896-5.8831 3.3486-3.0698 3.6294-2.5894 5.6594-0.57512 3.605-0.57512 3.6049 1.2136 5.8067 2.8977 5.3964 4.6197 3.7745 3.9616 2.0542 1.6978 0.44911 1.6978 0.44912 9.6209-0.37484zm200.06 67.033-3.1126-0.47335-7.9231-1.2157-7.8555-2.8716-8.5566-4.6027-5.8548-4.405-11.924-13.058-4.2739-7.6282-4.1046-10.187-1.1745-5.6594-1.1744-5.6594-0.33062-4.2445-0.33062-4.2445 1.1195-10.753 1.4944-5.9172 1.4944-5.9172 4.2271-9.7461 6.0078-8.9801 3.1536-3.628 3.1536-3.628 9.3669-8.1891 9.3367-4.5144 6.7912-2.3653 11.16-2.2935 13.741 1.9e-4 8.4891 1.6354 7.4593 2.3156 7.9908 3.2951 8.8852 5.9597 9.4411 9.1485 6.1339 9.1987 5.1633 12.307 1.6742 6.2253 1.6383 9.055 7.7e-4 6.2678 7.8e-4 6.2678-2.25 12.366-3.3296 9.2443-4.0586 8.3232-7.2572 9.6697-3.5785 3.1236-3.5785 3.1236-8.8173 5.9787-11.055 4.8652-10.689 1.9134-13.582 0.37109zm18.215-17.815 3.7838-0.80193 6.8964-2.7856 6.3386-3.797 8.4354-7.8381 4.5348-6.6778 3.1747-6.4238 2.305-7.9231 0.71161-4.358 0.71162-4.358-0.68314-5.263-0.68314-5.263-1.2139-5.5179-1.2139-5.5179h-1.4846l-0.793-1.2734-0.79299-1.2734-0.35095-1.9051-0.35095-1.9051-3.9865-6.5625-4.1699-3.6612-6.1812-2.8298-9.1508-0.028-6.7912 3.4898-3.6173 3.7811-1.5839 3.3956-1.5839 3.3956 0.0105 5.6594 0.0105 5.6594 3.0403 5.8154 4.8557 4.1873 4.5275 2.3604 9.2476 0.50771 5.0036-1.7049 5.4505-4.1604 1.9183-2.5123 1.9183-2.5123h0.47856l-0.69776 1.9808-2.1296 2.8297-2.1296 2.8297-0.8428 1.9808-0.8428 1.9808-2.9475 7.963-6.9028 10.674-8.09 8.0112-9.8387 6.4232-7.1394 2.245-6.9035 1.3003-8.3768-1.279-7.9231-3.7544-8.0165-6.4089-5.6454-7.0644-2.9787-5.2019-1.8376-4.985-0.56914-2.4052-0.56914-2.4052h-1.6061v1.5732l2.2926 11.16 6.7137 13.898 9.4793 9.4793 12.924 6.3116 9.055 2.205 13.017 0.0624zm106.48-161.18 0.76596-1.8393 4.2797-12.451 1.4628-6.2253 1.2299-4.2445 0.60531-2.1223 0.60531-2.1223 0.28623-1.4148 0.28622-1.4148 0.94166-2.2638 0.65415-2.8297 0.65415-2.8297 0.98894-3.9616 0.56974-2.5467 0.56973-2.5467 0.65874-3.142 1.1334-6.3521 1.1334-6.3521 1.1109-8.4891 0.52935-4.8105 0.52936-4.8105 1.7467-17.544 6e-3 -31.127-0.81518-9.9039-0.81518-9.9039-2.2625-15.846-1.2106-5.9423-1.2106-5.9424-0.48333-2.2638-0.48332-2.2638-3.9902-12.252-2.4054-3.892-2.0882-1.1176-7.1486-0.0064-11.885 1.203-10.187 1.7487-8.4891 2.2272-7.3572 2.3133-8.4758 2.7837-11.898 4.88-23.203 11.789-20.94 13.981-11.319 8.5639-14.561 13-16.565 17.385v1.3444l5.0934 2.4716 9.055 3.5865 6.2253 2.8466 4.2854 1.5293 10.429 5.5254 14.714 8.0822 1.4223 0.01 2.5166-3.8201 2.5166-3.8201 3.586-5.0934 5.1841-6.2253 9.6758-10.671 8.2338-6.5528 8.1784-5.2982 7.3572-3.3217 8.4891-2.1525 7.0185-0.018 5.998 1.2416 8.2723 3.9262 7.0989 6.9998 4.6692 7.9231 1.8289 6.7912 0.79064 5.6594 0.79065 5.6594 0.0326 8.4891-1.1262 10.187-1.2586 7.9231-0.77188 4.0069-0.77187 4.0068-3.3365 12.94-1.784 5.6522-1.784 5.6522-6.2891 15.28-0.27021 1.8296-0.27022 1.8296 5.6107 7.6596 10.086 14.714 1.8925 2.9712 1.8925 2.9712h0.9987zm-458.82-12.734 8.9131-13.441 1.1729-3.0878-4.1911-8.7969-3.5331-9.055-3.3304-9.6209-1.8618-6.5083-1.8618-6.5083-0.64889-2.8297-0.64888-2.8297-0.81605-5.0934-0.81606-5.0934-0.34671-8.4891-0.34671-8.4891 0.5621-6.5083 0.56209-6.5083 2.316-6.6618 3.0804-6.2962 8.1292-8.1292 9.4552-4.5838 3.8475-1.211h10.529l5.9976 1.5923 2.2638 0.83068 7.2486 3.2805 9.7168 6.4641 13.047 13.017 9.4743 11.885 6.1238 8.7124 1.1193 0.35525 1.1193 0.35526 14.404-7.6351 13.017-6.5196 11.885-5.0881 5.9983-2.3532 4.4716-2.2812v-1.4027l-21.789-21.6-10.187-8.4882-15.638-11.78-8.1316-5.7222-11.319-6.773-18.11-9.1936-10.187-4.1374-3.3956-1.5057-7.3572-2.8017-7.9231-2.3458-14.714-3.5953-7.9231-1.0005-10.637-1.1123-4.4225 0.70719-3.5897 2.4191-2.4645 3.657-4.0893 12.728-0.5244 3.9616-0.5244 3.9616-1.2006 6.7912-1.6146 11.319-1.176 11.319-0.65802 9.338-0.65801 9.338 0.6536 29.995 0.57356 6.5083 0.57357 6.5083 1.1077 7.6402 1.1077 7.6402 0.95601 5.9423 0.95601 5.9424 3.2638 15.28 3.4751 13.017 7.9849 23.769 1.0789 2.1223 1.0789 2.1223h0.45862zm233.07 9.8005 4.039-1.9427 7.3211-6.7156 6.5372-9.0908 0.7947-1.6143 0.7947-1.6143 2.2395-4.8476 2.2396-4.8476 1.4199-3.9363 1.4199-3.9363 0.86838-3.6667 0.86838-3.6667 1.1717-5.6594 0.72239-4.5275 0.72238-4.5275-0.0285-16.978-0.0285-16.978-0.95431-6.7444-0.95432-6.7444-1.5903-2.4271-4.3581-1.2848-10.187-1.4751-40.748 0.032-15.147 1.9961-3.8193 1.5958-0.97992 2.6015-2.0977 14.714 0.0196 15.846 0.0195 15.846 0.98173 5.3764 0.98174 5.3764 1.1237 6.6122 0.7846 2.9192 0.78459 2.9192 1.1855 3.3956 1.1855 3.3956 3.0518 6.2253 3.0518 6.2253 7.3667 10.263 6.8735 6.3636 7.0842 3.4357 11.2 0.029zm-205.49-44.92 5.3772-6.1153 10.047-9.5579 16.365-13.685 12.451-9.4067 0.17494-0.72165 0.17494-0.72166-3.077-4.894-7.6213-10.187-6.8431-7.8552-9.9734-8.8787-7.5794-5.0858-7.6214-3.5665-8.5685-0.0556-5.3734 2.6208-4.1052 4.711-1.6304 3.4293-1.6304 3.4293-1.8627 6.7239-0.0584 18.11 2.5302 12.451 4.0356 14.714 1.964 5.0934 1.964 5.0934 1.4428 3.6786 1.4428 3.6786 0.79648 1.5563 0.79647 1.5563h1.0054zm400.23 3.8221 0.89321-1.7273 1.9987-5.2054 1.9987-5.2055 2.8623-9.055 0.46565-1.1319 0.46565-1.1319 0.85799-3.6786 0.858-3.6786 0.88246-3.8826 0.88247-3.8826 0.49673-8.568 0.49674-8.568-0.81524-13.586-3.5575-7.4541-5.7256-5.3556-5.1935-2.2973-8.7741 0.39845-9.6211 4.8784-11.745 9.3329-10.77 11.82-5.204 6.7912-2.3413 3.6248-2.3413 3.6248v1.9118l11.036 7.7661 11.885 9.6213 9.055 7.969 18.956 18.397h1.1055z"/></svg>
